nColumns=46
nRows=13
DataType=double
version=3
OpenSimVersion=4.5
endheader
time	ground_force_1_vx	ground_force_1_vy	ground_force_1_vz	ground_force_1_px	ground_force_1_py	ground_force_1_pz	ground_moment_1_mx	ground_moment_1_my	ground_moment_1_mz	ground_force_2_vx	ground_force_2_vy	ground_force_2_vz	ground_force_2_px	ground_force_2_py	ground_force_2_pz	ground_moment_2_mx	ground_moment_2_my	ground_moment_2_mz	ground_force_3_vx	ground_force_3_vy	ground_force_3_vz	ground_force_3_px	ground_force_3_py	ground_force_3_pz	ground_moment_3_mx	ground_moment_3_my	ground_moment_3_mz	ground_force_4_vx	ground_force_4_vy	ground_force_4_vz	ground_force_4_px	ground_force_4_py	ground_force_4_pz	ground_moment_4_mx	ground_moment_4_my	ground_moment_4_mz	ground_force_5_vx	ground_force_5_vy	ground_force_5_vz	ground_force_5_px	ground_force_5_py	ground_force_5_pz	ground_moment_5_mx	ground_moment_5_my	ground_moment_5_mz
0	0.7966186967678364	7.187172755948268	0.614282995229587	255.5231990453039	1.564628339093617e-14	-255.8635872881566	-8.91978017189982e-15	145.6710649651821	5.461790118307571e-31	1.327674799540545	9.991923099732958	-0.7897996911196971	880.6879554916868	5.392658428702604e-14	-253.3613954600096	4.650201580271199e-15	-75.94355504801629	-2.847427240334544e-31	1.504698106145951	11.74489206459839	-1.316332818532828	1491.844549917001	9.134913264406397e-14	-270.175314599966	2.347854175190657e-15	-38.34336850143771	-1.437646050255993e-31	0.7966048797243265	13.49786102946382	-4.124509498069528	546.5835605055906	3.346859039198676e-14	-619.4261372763326	-1.365824233941814e-14	223.0560247889847	8.363261381473639e-31	1.327674799540545	7.88836034189444	-5.002064710424747	1110.310961108527	6.798693822898896e-14	-700.2491310152037	-4.252799089714225e-14	694.534798551744	2.604088396317652e-30
0.0005	1.504724205005914	8.589547927840613	-1.140811276854947	257.9628245814788	1.579566737113591e-14	-247.1516597326869	-1.2900772625802e-14	210.6856055931232	7.899444951358109e-31	1.858744719356763	9.641329306759872	-0.6142886486486533	893.2786837684545	5.469754404117992e-14	-255.2654017815081	1.466205197922038e-14	-239.4494802816399	-8.977917512642175e-31	1.681721412751357	11.74489206459839	-0.9653107335907408	1480.933574449819	9.068102808499099e-14	-256.399626350217	4.601279058631708e-16	-7.51445896373599	-2.817470835568534e-32	0.08851165330270221	9.991923099732958	-3.948998455598485	548.4318209322018	3.358176370275877e-14	-625.0493047575551	-1.644290708602575e-14	268.5330512842387	1.006837676578938e-30	1.327674799540545	8.940141720813699	-5.704108880308922	1154.989314527127	7.072269835425208e-14	-688.9651111496976	-2.782810440004525e-14	454.4674337028482	1.70397994899269e-30
0.001	1.504724205005914	7.537766548921354	-1.140811276854947	229.366782948333	1.404466482842009e-14	-258.0052226082151	-1.814629349131631e-14	296.3514623800178	1.111140012026448e-30	0.796604879724327	7.537766548921354	-0.08775552123552194	878.6396757325917	5.380116332448934e-14	-253.4515531921803	7.372171911774858e-15	-120.3967040440991	-4.514153367259552e-31	1.858744719356763	9.991923099732958	-1.140821776061785	1489.081126989613	9.117992179192814e-14	-272.7783140211462	5.108376199078449e-16	-8.342611441331655	-3.127978280520973e-32	0.7966048797243265	12.09548585757148	-4.124509498069528	554.3237811107916	3.394254221142945e-14	-637.2778570933832	-1.032626021866431e-14	168.6406272543864	6.323010761974947e-31	0.7966048797243266	8.238954134867527	-5.528597837837879	1150.604169147452	7.045418564160133e-14	-696.2386856467441	-3.532619810393275e-14	576.9205966737221	2.163105771701327e-30
0.0015	2.035803336184471	7.187172755948268	-0.08775471360422683	243.9484369783312	1.493753362512566e-14	-256.0589458060808	-2.190090128118386e-14	357.6688608737168	1.341043432622199e-30	1.150651492935139	8.940141720813699	-0.2632665637065657	887.4881791156629	5.434297789175547e-14	-245.1062594215952	6.671470742382382e-15	-108.9533855316867	-4.0850976451319e-31	1.681721412751357	11.04370447865222	-1.140821776061784	1490.850865736881	9.12882870365366e-14	-260.0123398206689	-6.253803822255909e-15	102.1323670891893	3.829350416710591e-31	0.2655349599081082	12.44607965054456	-3.948998455598485	559.0230069030974	3.423028680268035e-14	-633.7038933315519	-1.425836098790338e-14	232.8567060777133	8.730728072461683e-31	1.327674799540545	9.290735513786785	-5.353086795366835	1166.097328485671	7.140286804121281e-14	-685.6455807954599	-3.408197646145862e-14	556.6009152220513	2.086919169107037e-30
0.002	1.504724205005913	9.641329306759872	-0.4387735680211337	266.9914561621999	1.634851160943645e-14	-245.2039067803338	-3.927865622214892e-15	64.14691362357905	2.405124030863197e-31	1.327674799540545	7.187172755948268	-0.9653107335907408	877.5503694501143	5.373446255188299e-14	-265.2686705842672	-4.910136089566165e-14	-126.437401715118	3.006591222732553e-30	2.035768025962169	11.74489206459839	-2.018376988417003	1524.758344705211	9.336452131582269e-14	-270.2948634499721	-3.319530749497177e-15	54.21205121033042	2.032626353521466e-31	0.9736281863297325	12.09548585757148	-5.002064710424747	554.3530520815802	3.394433454146366e-14	-634.7592914547805	-1.984112175294036e-14	324.0301083831603	1.214918312311567e-30	1.327674799540545	7.88836034189444	-5.002064710424747	1148.321223130744	7.031439551500195e-14	-696.1648366762794	-3.504972792985105e-14	572.4054960867744	2.146176856013884e-30
0.0025	1.858776959124952	8.589547927840613	-0.9653018496464939	258.0452626229435	1.580071524531629e-14	-262.114324144884	-1.067349709341211e-14	174.3114357681482	6.535632025577859e-31	1.681721412751358	6.836578962975182	-0.7897996911196971	876.2975523441926	5.365774962894878e-14	-259.1391425695939	4.93401530245935e-15	-80.57858487679229	-3.021213023550452e-31	1.681721412751357	12.79667344351765	-1.491843861003872	1503.241912256289	9.204701980944054e-14	-251.8463328106485	-1.537258669724928e-16	2.51053392830525	9.412994546700755e-33	0.7966048797243265	12.09548585757148	-4.124509498069528	557.8651098706255	3.41593860579524e-14	-639.9415273144208	4.728160469180765e-14	156.1562758447198	-2.895163292218636e-30	1.681721412751357	7.88836034189444	-5.002064710424747	1148.410987441162	7.031989199377353e-14	-704.3334253541282	-3.788313068006049e-14	618.6784745844468	2.319672736450849e-30
0.003	1.327697827946394	7.537766548921354	-0.4387735680211336	252.0502016855018	1.543362363592973e-14	-274.9159966029009	-1.749450145834636e-14	285.7068906810798	1.071229260682129e-30	1.681721412751358	6.135391377029009	-1.491843861003872	873.1315583263861	5.346388840694746e-14	-250.3730456402795	-1.392359310597045e-16	2.273895316701044	8.525741864928433e-33	1.504698106145951	14.19904861540999	-1.316332818532828	1503.686912317589	9.20742682044751e-14	-246.7009858264166	1.22090115919443e-14	-199.3882905739792	7.105427357601001e-15	0.2655349599081082	11.3942982716253	-3.948998455598485	551.2966431644828	3.375718347160322e-14	-636.5104076889595	4.966287826042689e-14	117.2671272301613	-3.040974244903823e-30	1.327674799540545	7.88836034189444	-5.002064710424747	1121.171035972018	6.865192602499266e-14	-704.3334253541282	-4.627752085400741e-14	755.7692697392852	2.833680889316753e-30
0.0035	2.035803336184471	8.589547927840613	-0.2632641408126802	258.0864816436758	1.580323918240649e-14	-261.9508608951922	-2.750570679850378e-14	449.2022813051784	1.684238789453663e-30	0.973628186329733	9.641329306759872	-0.6142886486486533	888.652317052989	5.44142607816911e-14	-225.1901434676106	5.78870263376157e-15	-94.53668825643263	-3.54455807582598e-31	1.327674799540545	10.69311068567913	-1.140821776061784	1502.239675421972	9.198565050288384e-14	-243.9019333965994	1.648367475535799e-15	-26.91988378499755	-1.00933397636676e-31	0.2655349599081082	12.09548585757148	-3.597976370656397	543.6119819189244	3.328663368175798e-14	-621.2087730176966	-4.944427482782073e-14	343.3245473234152	3.027588645202635e-30	1.327674799540545	7.187172755948268	-5.177575752895791	1112.992600457093	6.815114128122337e-14	-718.7512153518284	-4.869546125806974e-14	795.2572332197891	2.981737038134953e-30
0.004	2.38985609030351	9.641329306759872	-0.4387735680211337	302.7171313532492	1.853607829794128e-14	-248.5456021485446	-6.724631117857953e-14	169.8921244070441	4.117648986965715e-30	1.858744719356763	9.641329306759872	0.08775552123552177	866.6221363762505	5.306530126917081e-14	-231.7279019685703	8.953366757536621e-15	-146.2195755342733	-5.48235597060477e-31	1.504698106145951	11.3942982716253	-1.316332818532828	1491.347459145217	9.13186946129364e-14	-252.541436329793	6.180440069979367e-15	-100.9342460909126	-3.784428074511138e-31	0.6195815731189204	12.79667344351765	-3.24695428571431	553.5612262360504	3.389584919210315e-14	-612.6194611940128	-8.860128695942237e-15	144.6968824335474	5.425264123759637e-31	0.9736281863297327	9.290735513786785	-5.177575752895791	1152.189886084644	7.055128280017562e-14	-678.672204687143	-2.912181836337301e-14	475.5953860925248	1.783197082202768e-30
0.004500000000000001	1.327697827946394	8.589547927840613	-0.08775471360422679	272.8819127706569	1.670919805098961e-14	-246.9064648581493	-7.331022206666125e-15	119.724678360655	4.488956439935918e-31	0.4425582665135148	8.589547927840613	0.08775552123552186	856.7287395997947	5.245950543442174e-14	-261.8691290822967	1.543693338233364e-14	-252.1042539462224	-9.452395527662905e-31	1.858744719356763	12.09548585757148	-1.140821776061785	1520.701995852699	9.311614158389995e-14	-270.7758968146626	2.947625013983765e-15	-48.13836962683472	-1.804899769230945e-31	0.7966048797243265	12.79667344351765	-3.948998455598485	533.505193228012	3.266777136075875e-14	-627.83547824141	-1.438737413748341e-14	234.9636507032144	8.809725842802237e-31	1.327674799540545	10.69311068567913	-5.528597837837879	1163.187787555467	7.122471004185468e-14	-665.8006309777408	-3.162376370590985e-14	516.4552543301063	1.936397049971737e-30
0.005	2.035803336184471	6.836578962975182	-0.7897924224380405	247.3394256548747	1.514517179655936e-14	-273.2770823856152	3.729443829463658e-14	319.2590807371104	-2.283625724176258e-30	1.327674799540545	9.991923099732958	-0.08775552123552197	859.2535972084819	5.261410837386082e-14	-237.0986586317923	7.719028800317952e-14	-332.289590052214	5.684341886080801e-14	1.858744719356763	12.79667344351765	-2.018376988417003	1503.269579338267	9.204871392960987e-14	-254.4463406868732	1.086311243054946e-15	-17.74080892239752	-6.651737933425112e-32	0.2655349599081082	11.74489206459839	-3.948998455598485	534.5749758738613	3.273327665540989e-14	-632.7758691062195	-2.015496269820581e-14	329.1555199791235	1.234135527764602e-30	0.7966048797243265	10.34251689270604	-4.65104262548266	1153.384620018189	7.062443915455308e-14	-683.3354660968163	-3.547787026879122e-14	579.3975911012431	2.172393013262011e-30
0.0055	2.035803336184471	8.940141720813699	-0.6142829952295871	250.1477300330008	1.531713084494454e-14	-259.5999418329778	-1.71724622633139e-14	280.4475915058943	1.051510047212304e-30	1.681721412751357	9.290735513786785	-0.7897996911196971	851.3423160457313	5.212968211620496e-14	-240.049685187973	3.444964814191505e-15	-56.26054494389768	-2.109432566437442e-31	1.327674799540545	13.14726723649073	-2.018376988417003	1493.540868632729	9.145300220834147e-14	-260.3461680786205	1.174826008340942e-15	-19.18636474057503	-7.193734553348984e-32	0.6195815731189205	11.3942982716253	-3.422465328185353	536.3217609530165	3.284023639320917e-14	-639.2455756203256	-2.524331996562709e-14	412.2547004279514	-1.13686837721616e-13	0.7966048797243266	8.940141720813699	-5.528597837837879	1140.496880326365	6.983529269646126e-14	-696.1334258019641	-4.099060812604161e-14	669.4274325394206	2.509950851833017e-30
0.006	1.681750582065433	8.940141720813699	-0.6142829952295871	259.6509438531048	1.58990348642647e-14	-248.7885744652369	-1.665751920640683e-14	272.037933190279	1.019978878893084e-30	0.9736281863297329	11.3942982716253	-0.6142886486486533	864.6987022602253	5.294752489749276e-14	-224.1423251687719	7.198105957038918e-15	-117.553991274064	-4.407568710105603e-31	2.035768025962169	12.44607965054456	-1.667354903474916	1513.489493548782	9.267450319088325e-14	-261.1009080868977	3.059635492785966e-15	-49.96763956621948	-1.873486406398984e-31	0.08851165330270205	12.79667344351765	-3.597976370656397	546.7836582934434	3.348084284775728e-14	-627.7806167828455	-1.791736594353323e-14	292.6127918026323	1.097122242594988e-30	0.6195815731189205	8.589547927840613	-5.353086795366835	1142.809650695689	6.997690903795901e-14	-707.3956890441991	-4.345292804632624e-14	709.6401685217299	2.660724462275685e-30
